<svg xmlns="http://www.w3.org/2000/svg" viewBox="0 0 1276.48 930.82"><defs><style>.cls-1{fill:#fff;}.cls-2{opacity:0.6;}</style></defs><g id="social"><path class="cls-1" d="M958.07,431.05q7.41,9,16.71,22.73l-17.65,9.47h26.09v19.12a221.52,221.52,0,0,1-16.54,30v7.41l9.48-8.36q10,9,21.87,21.36l-17,13.95q-8-10.42-14.3-17.74V601.2H943.26V542.3q-7.32,7.83-15.5,15.16-3.62-16.55-6.89-28.08,22.9-20,35.14-43.4H923.29V463.25h29.19q-8.19-13.17-14.73-22Zm21.7,142.08h45.81V502.69H991.14V480.3h34.44V433.63h24.8V480.3h35.48v22.39h-35.48v70.44h41.68v22.39H979.77Z" transform="translate(-322.08 -74.3)"/><path class="cls-1" d="M1158,509.75a149,149,0,0,0,25.06,32.89,112,112,0,0,0,24-33.23l20.32,13.6a169.83,169.83,0,0,1-24.88,34.53q25.05,14.3,65.87,19-8.61,14.48-14.29,24.63-41.07-5.6-71-26.61-29.7,20.58-72,27.3-4.32-9.64-14-24.63,39.6-5,66.3-20a174,174,0,0,1-24.8-33.24Zm-58.73-56.66h69.49q-3.43-8.18-6.11-14.12l25.49-7.75q4.13,8.17,10.68,21.87h66.64v21.7H1099.29Zm1,61.66a356.07,356.07,0,0,0,49.77-39.62l18.6,17.05a631.46,631.46,0,0,1-52.19,42.54A239.08,239.08,0,0,0,1100.33,514.75Zm113.83-39.1q28.42,20.14,51.15,37.72l-17.91,19.8q-23.76-21.69-49.08-40.81Z" transform="translate(-322.08 -74.3)"/></g><g id="food"><path class="cls-1" d="M513.75,556.66h16.06q-.36,8.55-1.18,15.94,5.63,32.68,29.54,45.11-5.74,8.56-10,16.17-17-11.71-25.66-32.81-7.85,19.11-26.48,34.22-2.82-3.63-6.1-7.62l-4.69,2.23-2.92-5.74q-26.49,8.21-31.65,11.13L445,622.75a15.62,15.62,0,0,0,2.81-9.72V559.24l-2.57,2.81q-2.11-12.66-3.52-16.64,9.61-9.25,19.92-26.49H479l-2.93,4a285.61,285.61,0,0,1,20.74,21.56Q491.84,550.34,488,556h1.29v45.23h-4.45q3.63,6.55,7.85,14.06,10.77-9.6,15.11-19.57Q513.88,582.92,513.75,556.66Zm-53.9-10,10.54-4.57q3.41,6.09,6,11.36l-6.1,2.47h15.47a199.76,199.76,0,0,0-17.69-22.27A227.85,227.85,0,0,1,450.7,556H464Q462.66,553.14,459.85,546.7Zm16.28,21.21h-15v5.62h15Zm0,21.33v-5.63h-15v5.63ZM473,605.64l11.48-4.45H461.13v15.12l15-4.34Zm82.62-70.54v13.47l-6.21,23.21-14.65-3,5.51-19.22H512.46A232.2,232.2,0,0,1,503.2,573a112,112,0,0,0-12.77-8A187.17,187.17,0,0,0,506,518.22l14.76,2.46q-1.87,7.5-3.86,14.42Z" transform="translate(-322.08 -74.3)"/><path class="cls-1" d="M630.12,519.39l-2.35,3.4A125.24,125.24,0,0,0,677.7,550.1q-4.34,6.55-8.68,14.29-5.5-2-10.78-4.45v35.39l9.38,11q-9,3.63-18.17,7.38,10,4,21.1,8.55l-7.85,13.25q-23.21-10.9-43.6-19.22c-.15,4.14-.23,7.57-.23,10.31q-29.07,6.09-36.8,9.49l-7.26-11.72q3.39-4.46,3.39-11.6v-52q-4.34,2.24-8.78,4.34-2.94-4.94-8.91-13.36,32.93-12.78,52.38-32.35Zm13.12,44.3h-50v6.56h50Zm0,23.67V580.8h-50v6.56Zm-30.82,26.25L601.17,609l6.1-9.84H593.2v18.4Q602.94,615.73,612.42,613.61Zm-3.75-69.49,14.07-3.87c1.32,2.81,2.93,6.68,4.8,11.6h15.94a150.89,150.89,0,0,1-24.26-19,199.82,199.82,0,0,1-25.78,19h18.28C610.78,549.28,609.77,546.7,608.67,544.12ZM650,599.2H611.37q10,3.63,21.8,8.2Q641.6,603.53,650,599.2Z" transform="translate(-322.08 -74.3)"/></g><g id="fun"><path class="cls-1" d="M440.47,766.2h9.84q1.29-10.08,2.58-21.21l13.71,1.52q-1.29,10.32-2.58,19.69h20.74q-1,40.54-10.19,61.76,5.26,4.92,10.9,10.31l-11.14,11.6q-3.63-4.1-7.38-8.2a75.43,75.43,0,0,1-18.28,19,137.24,137.24,0,0,0-9-13,73.25,73.25,0,0,0,17.22-17.11q-7.14-7.62-14.41-15,3-15,5.86-34.57h-7.85Zm16.17,45.35q3.39,3,7,6.45,5.38-13.83,7.27-37h-9.15Q459.23,797.95,456.64,811.55ZM557.07,830.3h-26q9.26,11.61,26.25,15-4.21,7.62-8.32,16.06-17.81-6.11-28.24-24.61-9.25,17.68-32.81,24.84a118.25,118.25,0,0,0-8.56-15.12q19.45-3.63,27.42-16.17H483.47V817.06h28.25a52.63,52.63,0,0,0,.7-8.91H488.86V760.58h13.95v34.21H552v22.27h5Zm-49.69-80h41v37.5h-41Zm27.42,13.6H521v10.31H534.8Zm-8.32,53.2h11.6v-8.91H527C526.87,811.36,526.72,814.33,526.48,817.06Z" transform="translate(-322.08 -74.3)"/><path class="cls-1" d="M529.88,916.88q2.11.12,6.91.12c1.88-3.21,3.87-6.64,6-10.32L555,911.37q-5.87,8.57-14.42,20l6-1q4.34,11.48,8.44,25.89l-10.78,2.23c-.32-1.33-.67-2.73-1.06-4.22q-16.29.94-21.33,2.11l-4.8-8.9v8H506.68v7h48.51v12.18H517.58q15.46,9.86,39.25,14.07a106.27,106.27,0,0,0-7.5,14.88q-25.3-8.08-42.65-23.79v25.31H490.74V980.28q-16.53,14.41-43.36,23.32a137.16,137.16,0,0,0-7.62-13.6q25-5.73,40-15.35H442.93V962.47h47.81v-7h-9c.23.63.43,1.22.58,1.76l-10.19,1.88q-.71-2.7-1.29-5.28-17.7,1.77-21.21,2.7l-4.81-11.25q3.87-2.58,13.36-17.23c-4.14.16-7.46.39-10,.71l-4.34-10.55q5.86-5.86,15.71-27.54l13,3.16Q462.85,910,458,917.47q2.7,0,6.68-.12,2.7-4.46,5.75-9.73l9.49,3.63V898.6h10.31q1.75-5,2.81-9.26l16.88.59q-1.65,4.1-3.63,8.67H517v18.28q5-5.62,15.47-26.48l12.42,3.86Q534.45,910.33,529.88,916.88Zm-70.43,27.66q2.22-.12,8.79-.59-1.29-4.46-2.58-8.32Q462.38,940.43,459.45,944.54Zm15.47-13.48q1.75,6.33,5,18.05V913.83q-6.68,10.32-12.19,18.64Zm28.94-20.39H493.08v10.78h10.78Zm0,32.58V932.47H493.08v10.78Zm26.84-16.41c-4.77.31-8.2.63-10.31.94l-3.4-7.5v24.14Q521.91,940.55,530.7,926.84Zm-.12,17.46c2.35-.15,5.55-.35,9.61-.58-.86-2.66-1.75-5.47-2.69-8.44Q534.21,939.62,530.58,944.3Z" transform="translate(-322.08 -74.3)"/></g><g id="study"><path class="cls-1" d="M1372.79,665.13h51.56v-1.41l13.83-7.26h-41.72v-11h67.38v10.2l-17.22,9.49h42v12.42h-47.81v7.74q0,13.13-15.24,13.12h-20.74q-1.29-6.09-3.28-12.77,11.37.35,16.29.35,6.56,0,6.56-4.81v-3.63h-51.56Zm1.17-12.19v-23.2h6.21v-41q14.65-2,28.36-4.68,1.88,5.26,4.1,11.71-9.5,1.65-17.93,2.58v4.81H1411v8.08H1394.7v5.16H1411v8H1394.7v5.39h21.92q-2.36-3.4-5.39-7.38c3.36-1.57,6.71-3.32,10.07-5.28q-4.21-3-8.55-6.21l3.87-3.75q-2.23-2.93-4.92-6.21a92.35,92.35,0,0,0,9.37-5c-3-2.19-5.74-4.25-8.32-6.21l6.09-6.8,10.9,7.27q4.69-3.51,9.61-7.73l7.62,6.79q-4.34,3.52-8.56,6.8l8.21,5.39L1442.4,606l4.8,4.22q-4.34,3.75-8.55,7l9,5.86-6,6.68h24.6v-5.51h-17.81v-7.85h17.81v-5.27h-17.81v-7.86h17.81v-5.62h-19V587h33.52v42.77h5.62v23.2h-14.88V640.52h-82.74v12.42Zm55.9-29.65a121.84,121.84,0,0,1-11.48,6.45h20.27Q1434.32,626.58,1429.86,623.29Zm0-11.95c2-1.48,4.06-3,6.09-4.57-2.19-1.64-4.29-3.2-6.33-4.69-2.42,1.49-4.8,2.93-7.14,4.34Q1426.11,608.76,1429.86,611.34Z" transform="translate(-322.08 -74.3)"/><path class="cls-1" d="M1374.2,731.43h54.37V773H1413.8V744.33h-39.6Zm7.5,20.63,9.14-7.38q7.14,6.68,13.47,13.36L1396,764.6q7.86-2.24,14-4.1a123,123,0,0,0,1,12.3q-20.87,6.68-33.4,10.9l-3.39-13.24q10.54-2.7,19.1-5Q1387.78,758.5,1381.7,752.06Zm4,91.17v-58h25.66q2.36-6.79,3.75-11.6l16.41,4.22q-1.63,3.17-3.75,7.38h47.93v58h-15.94v-5.15h-58.12v5.15ZM1459.74,798h-58.12v8.08h58.12Zm-58.12,27.42h58.12v-8.09h-58.12Zm33.86-73.48,9.26-7.26A154.05,154.05,0,0,1,1458,757.22l-7.85,6.68q7.74-2.35,14.89-4.57a66.6,66.6,0,0,0,2.46,11.71q-17.58,5.52-32,11l-4.68-12.77q8.55-2.35,16.52-4.57A148,148,0,0,0,1435.48,751.94ZM1433,731.43h51.33V781h-14.76V744.33H1433Z" transform="translate(-322.08 -74.3)"/></g><g id="work"><path class="cls-1" d="M1483.48,169.85h47.11V102.7h-40.78V86.06h101.71V102.7h-41.71v67.15h47.69v16.64h-114Z" transform="translate(-322.08 -74.3)"/><path class="cls-1" d="M1505.16,221.85l15.7,4.57q-3.75,11.79-8.44,22.86v87.3h-15.93V280.51q-4.82,7.85-10.2,15.29-1.29-9-4-21.8Q1496.49,251.62,1505.16,221.85Zm86.72,62h-31.76v14.41h34.45V313h-34.45V336.7h-16.53v-82h-3.45a142.53,142.53,0,0,1-16.35,28.12q-3.4-6.44-9-15.23,13.35-20,20.86-46.41l15.23,3.63q-2.22,7.74-4.69,14.77h52.39v15.12h-38.44v14.41h31.76Z" transform="translate(-322.08 -74.3)"/></g><g id="圖層_1" data-name="圖層 1"><g class="cls-2"><path class="cls-1" d="M833.24,271.74q-7.11,12.21-19.61,29.91V402.4h-18V322q-10.61,10.6-15,13.71l-9.6-17q22.71-15.11,47.12-55.13Zm-7.51-41.62q-19.9,29-44.12,46.92L772,261.23q20-13.41,37.52-39.12ZM954.2,387.5l-7.8,16.41Q906.58,396,886.17,385q-18,9-59.64,18.31l-7.6-16q29.82-4.91,50.23-13.31a142.9,142.9,0,0,1-19.11-18.51,214.93,214.93,0,0,1-18.21,13.81l-11.51-12.71a188.54,188.54,0,0,0,19.31-14.21l-7.4-11.4,13.7-8.81a60.73,60.73,0,0,0,6,8.21,107,107,0,0,0,12.1-15.61q-20.4.4-31.81.8l-3.7-16.41q19.61-5.29,47.12-22.51-11.91.8-36.62,1.6l-3.1-14.51q24.7-13.5,46.92-41.62l17.61,7.6q-17.21,21-38.92,32.62,16.91-.9,37.52-2.9,17.91-16.91,21.71-20.71l17.21,8.2Q900.88,284,858.85,300.65q20.91-1.09,57.83-6-3.3-4.41-8.6-10.41l14.9-8.6q19.41,21.81,28.32,37.92l-15.61,8.1a94,94,0,0,0-8.2-12.6q-22.11,2.4-43.43,4-1.89,3.7-9,15h60.23v16.81a139.18,139.18,0,0,1-31.72,29.91Q930.59,384.69,954.2,387.5Zm-40.82-42.62H863a97.91,97.91,0,0,0,23,20.71Q895.58,360.69,913.38,344.88Z" transform="translate(-322.08 -74.3)"/><path class="cls-1" d="M1156.41,256.13H1024.84v69.24q0,51-32.52,78.94L978.11,392.6q28.73-22.91,28.72-66.13a216.21,216.21,0,0,1-22.91,17.2l-7.61-15.6a245.69,245.69,0,0,0,30.52-22.72V239.52h59.83l-7-11.91,18.51-5.1a151.48,151.48,0,0,1,8.8,17h69.44Zm-154.88,31.62-16.21,5.7a288.87,288.87,0,0,0-8.21-38.32l15.81-5.5A227.55,227.55,0,0,1,1001.53,287.75Zm157.38,98.55-6.81,17.21q-33.91-3.92-61.83-16.21-26.31,11.59-65.83,17.21L1016,387.9q32.82-3.6,55.53-12.31-18-12.1-27.41-28.51h-11.31V331H1142.5v16.11a121.61,121.61,0,0,1-32.22,29.31Q1129.88,383.2,1158.91,386.3ZM1155,321.66h-34.21q-15.61,0-15.61-15.91V282.14h-35q-.2,31.73-32.22,42.82l-8-15.7q12-4.5,17-10.71t5-19.21V265.53h71.64v34q0,5.81,5.8,5.8H1155Zm-36.51,25.42h-52.43q9.2,12.1,24.61,20.51Q1107.88,358.38,1118.49,347.08Z" transform="translate(-322.08 -74.3)"/><path class="cls-1" d="M1202.73,270.24q-1,28.51-6.2,49l-15.51-5.9a203.92,203.92,0,0,0,6.9-46.32Zm41,9.5-9.7,14.31a75.68,75.68,0,0,0-8.61-14.71V402.4h-17.81V224h17.81v35Q1233.94,266.44,1243.75,279.74Zm108,107.16q0,16.2-23.12,16.21c-5.06,0-10.47-.17-16.2-.5l-6.21-16.11q20,.3,24.17-.1c2.76-.27,4.15-1.87,4.15-4.81v-10.9h-67a81.11,81.11,0,0,1-17.81,34.22l-15.2-11.71q17.6-15.21,17.61-49.53V308.56h99.65Zm9.2-87.75H1244.35V284.44h49.13v-10.1h-43.23V260.43h43.23V251h-49.33V236.72h49.33V224.21h17.41v12.51h46.32V251h-46.32v9.4h40.82v13.91h-40.82v10.1h50Zm-26.41,57.43v-10.5h-64.74q0,4.4-.4,10.5Zm0-23.41V323h-64.33v10.21Z" transform="translate(-322.08 -74.3)"/></g></g><g id="圖層_2" data-name="圖層 2"><g class="cls-2"><path class="cls-1" d="M1359.37,453.21h-8.49V437.39h-29.62v19.05h-8.2V437.39h-28v15.82h-8.39V430.39h36.37v-3.57h-32.71V419.3h74.78v7.52h-33.87v3.57h38.11Zm1.79,39.7a17.59,17.59,0,0,1-2.66,7.36,7.1,7.1,0,0,1-4,3q-2.18.51-17.8.51-13,0-16.67-.44a7.88,7.88,0,0,1-5.42-2.53,9.11,9.11,0,0,1-1.74-6v-5.55h-31.74v-30.2h71.54v30.2h-31.31v3a2.43,2.43,0,0,0,1.52,2.58q1.51.56,17.24.55c4.51,0,7.31,0,8.42-.09a3,3,0,0,0,2.44-1.26,5.52,5.52,0,0,0,.77-3.09Zm-50.61-39a154.84,154.84,0,0,1-21.51,2.17l-1.69-5.74a169.87,169.87,0,0,0,21.47-1.74Zm-.48-12.84-1.59,5.65a167.73,167.73,0,0,0-20.12-1.5l1.79-5.54A139,139,0,0,1,1310.07,441.05Zm2.8,29.72v-5.31h-23.25v5.31Zm0,12v-5.65h-23.25v5.65Zm31.5-12v-5.31h-23v5.31Zm0,12v-5.65h-23v5.65Zm3.76-38.55a174.27,174.27,0,0,1-22,2.17l-2-5.4a163.41,163.41,0,0,0,20.83-1.88Zm-.62,6.85-1.35,5.6a184.64,184.64,0,0,0-22-2.37l2-5.59A147.12,147.12,0,0,1,1347.51,451Z" transform="translate(-322.08 -74.3)"/><path class="cls-1" d="M1361.25,550.21h-26.58l6.61,3.57a42.22,42.22,0,0,1-4.63,7.91h20.46v52a8.17,8.17,0,0,1-1.6,5,8.52,8.52,0,0,1-3.64,3,20.12,20.12,0,0,1-6.78.82q-2.46,0-6.07-.24l-2.75-8.2c1.67.09,3.21.14,4.63.14q5.79,0,6.75-.46a1.76,1.76,0,0,0,1-1.76V569.6h-16.31v6.51a1.63,1.63,0,0,0,.53,1,1.43,1.43,0,0,0,1,.58h11.63v7.38H1330a6.64,6.64,0,0,1-6.12-6.12V569.6h-11.29q0,15.78-18.48,19.54l-4.24-7.38q14.33-2.26,14.42-12.16h-16.26v52.82h-8.63V561.69h20.74a83.76,83.76,0,0,0-5.5-8.11l6.42-3.37h-25.62v-7.67h38.35q-.67-1.85-2.26-5.17l9.07-2a52,52,0,0,1,2.6,7.14h38Zm-21.42,61.46h-42.59V590.15h42.59ZM1333,550.21h-29.72a68.81,68.81,0,0,1,6.9,11.48h16.4A78.42,78.42,0,0,0,1333,550.21ZM1331.34,604v-6.51h-25.51V604Z" transform="translate(-322.08 -74.3)"/></g></g><g id="圖層_3" data-name="圖層 3"><g class="cls-2"><path class="cls-1" d="M1024.66,818.17H987.29v15.35h-9.38V818.17H941V788.45h37v-8H945.33v-29h32.58v-8.77h9.38v8.77h32.48v29H987.29v8h37.37Zm-46.75-8.67V797H950.23V809.5Zm0-37.57V760.15h-23.5v11.78Zm32.78,0V760.15h-23.4v11.78Zm4.79,37.57V797H987.29V809.5Z" transform="translate(-322.08 -74.3)"/><path class="cls-1" d="M1064.17,781.51l-5.66,7.75a100.93,100.93,0,0,0-17.84-13.76l5.61-7.75Q1057.91,774.83,1064.17,781.51Zm-.46,16.73a154.44,154.44,0,0,1-15,36.25l-8-5.56q10.76-19.93,14.74-35.28Zm.77-41.66-6.48,7.19q-5-6.78-15.85-15.14l6.58-7.19A90.25,90.25,0,0,1,1064.48,756.58Zm17.94,33.3c.07,1.56.11,3.12.11,4.69q0,16.41-4,25.59a34.11,34.11,0,0,1-12.13,14.73l-6.68-6.57q13.45-7.76,13.46-32.48,0-2.7-.11-6Zm50.22-5.51-8.56,4.38a69.24,69.24,0,0,0-4.39-6.27q-33,2.76-51.23,3l-1.69-7.7q7.14-3.76,16.57-16.72h-16.77V752.5H1089q2.09-3.62,5.46-10.55l9.79,2a71.27,71.27,0,0,1-4.29,8.56h31.77v8.57h-36.87a77.06,77.06,0,0,1-13.56,15.35,305.56,305.56,0,0,0,31.92-2,72.81,72.81,0,0,0-6.58-6.89l8.67-4.18A122,122,0,0,1,1132.64,784.37ZM1100.93,834h-9V789.88h9Zm31.31-1h-13.87a7.17,7.17,0,0,1-7.75-7.7V789.77h9.07V822a2.26,2.26,0,0,0,.61,1.51,1.75,1.75,0,0,0,1.28.69h10.66Z" transform="translate(-322.08 -74.3)"/><path class="cls-1" d="M1236.65,801.4H1196V834h-9.48V801.4H1145.8v-9.23h40.73V754.7h-38v-9.18h86v9.18H1196v37.47h40.64Zm-61-17.23-8.87,4.07a129.84,129.84,0,0,0-13.46-24.57l8.77-4.38A141.91,141.91,0,0,1,1175.67,784.17Zm54.5-20.4a115.68,115.68,0,0,1-14.83,24.78l-8.57-4.28q7.35-8.88,14.84-24.78Z" transform="translate(-322.08 -74.3)"/><path class="cls-1" d="M1342.34,780.39l-8.06,6.48a100.75,100.75,0,0,0-6.47-9.18q-40.29,4.74-74.64,5.71l-2.2-8.77q15-4.85,32.53-33l10.55,2.09a141.44,141.44,0,0,1-24.72,30q20.45-.76,51.59-4.08a143.07,143.07,0,0,0-15.7-14.63l8.06-6.17Q1332,765,1342.34,780.39Zm-9.23,53.23h-9.49v-4.69h-54.9v4.69h-9.54V790.44h73.93Zm-9.49-13.77V799.51h-54.9v20.34Z" transform="translate(-322.08 -74.3)"/></g></g><g id="圖層_4" data-name="圖層 4"><g class="cls-2"><path class="cls-1" d="M760.91,304.59l-2,6.9H731.34q-13.51,0-20.46-2.1a28.92,28.92,0,0,1-11.64-6.51,67.56,67.56,0,0,1-7.7,10.57l-6.28-4.78q10.9-11.73,13.73-24.25H687.05v-7.23q4.46-4.74,10.15-14.77H685.85v-7.07h20.54v6.07q-4.41,7.9-10.06,16h10.31v7.48a92.14,92.14,0,0,1-4.16,12q7.93,7.65,26.66,7.65ZM705.52,247.7l-5.45,5.53a56.59,56.59,0,0,0-12.6-10.73l5.36-5.53A76.79,76.79,0,0,1,705.52,247.7Zm49.81,32.1h-19a70.08,70.08,0,0,1-9.4,7.7v7.57a59.75,59.75,0,0,0,10.32-2.75l1,6.07a83.17,83.17,0,0,1-18.14,4.24l-2.07-4.94a3.4,3.4,0,0,0,1.62-3v-3.08a49.55,49.55,0,0,1-9.28,4l-3.57-6q12.23-4,19.5-9.74H713.13V263.3h42.2Zm4.2-20.41H709.34v-6.16h21.29v-4.49H712.5v-6.15h18.13v-4.74h7.7v4.74h17.88v6.15H738.33v4.49h21.2ZM748,273.78v-4.54H720.69v4.54Zm11.76,24.45-4.78,5a106.84,106.84,0,0,0-20.58-14.89l4.16-5.28a48,48,0,0,1,6.4,3.74,78.42,78.42,0,0,0,7.9-6.19l5.12,4.32a40.14,40.14,0,0,1-7.07,5.86A103.62,103.62,0,0,1,759.78,298.23Z" transform="translate(-322.08 -74.3)"/><path class="cls-1" d="M718.2,403.79a271.32,271.32,0,0,1-31,9.9L685.35,407c1.3-.28,2.46-.56,3.49-.84V373.31h6.82v30.86c.94-.22,2.44-.65,4.49-1.29V367H688.26V341.83h26.9V367h-7.61v11.23h9.07v6.9h-9.07v15.43q5.28-1.74,10.23-3.74Zm-10.36-43.74V348.78H695.58v11.27Zm52.44,52.44H719.16v-7.24h5v-56H719v-7h40.46v7H731.76v12.35h24.36v31.06H731.76v12.6h28.52Zm-11.56-26.83v-17h-17v17Z" transform="translate(-322.08 -74.3)"/><path class="cls-1" d="M725.89,454.6h-40v-6.82h16.18a30.25,30.25,0,0,0-2.29-4.45l7.32-2a47.54,47.54,0,0,1,3,6.41h15.76Zm34,57.88H736.12v4.08H729V471.77q-1.79,2.75-3.24,4.7l-2.67-7.57V480H709.8c-.31,2.75-.54,4.53-.71,5.37h15.1l0,24.53a6,6,0,0,1-2.19,5c-1.45,1.17-4.65,1.75-9.58,1.75L710.17,510l5.41-.08c1.11,0,1.66-.73,1.66-2.17l0-16.42h-9l-2.33,9.56a15.43,15.43,0,0,0,3.78-1,32.73,32.73,0,0,0-1.29-4l4.49-1.79a78.18,78.18,0,0,1,3.33,12l-4.91,1.95a9,9,0,0,0-.45-2.74q-5.62,1.62-12,3.16L696.66,503a7.7,7.7,0,0,0,2.33-.54q1.74-6.24,2.7-11.06h-5.86v25.11h-7V491.36h-2.91v-6h2.91v-2.21h7v2.21h6.9q.45-2.46.75-5.37H689.84V458h6.4v15.85H716.7V458h6.36v9.24q5.21-9.12,9.28-25.75l6.65.88q-1.12,5.61-3.41,13.43h8.69a89.31,89.31,0,0,0-4-11.31l6.82-1.29a46.17,46.17,0,0,1,4.33,12.6h7.4v7.07h-8.57v9.44h7.82v6.65h-7.82v9.73h7.82v6.91h-7.82v9.85h9.61Zm-44.21-53.81a39.94,39.94,0,0,1-4.61,5.53,61.1,61.1,0,0,1,4.53,4.24l-3.58,4.2a61.28,61.28,0,0,0-4.86-4.53,48.71,48.71,0,0,1-6.37,4.78l-3.57-4.2a41.92,41.92,0,0,0,5.45-4,30.07,30.07,0,0,0-5.74-3.74l4-3.83a54.22,54.22,0,0,1,5.7,3.75,40.91,40.91,0,0,0,4.41-4.95Zm27.61,13.6v-9.44h-7.15v9.44Zm0,16.38v-9.73h-7.15v9.73Zm0,16.76v-9.85h-7.15v9.85Z" transform="translate(-322.08 -74.3)"/><path class="cls-1" d="M730,549.35a103.19,103.19,0,0,1-10.15,15.59h6.32v6.66h-12a83.57,83.57,0,0,1-6.82,6.57h14.85v6.36q-4.29,4-10.73,8.94v1.21q8.19-1.24,15.14-2.83l.08,7c-2.61.52-7.68,1.36-15.22,2.49v9.44q0,4-1.85,6t-7.92,2c-1.44,0-3.14,0-5.08-.12l-2.2-7.4c2.47.16,4.44.25,5.91.25q3.9,0,3.9-1.71v-7.15q-11.92,1.62-17.13,1.95l-1.37-7q9.86-.54,18.5-1.79V590.6q4.41-3,7.91-5.82H698.53a77.65,77.65,0,0,1-9.61,5.61L685,584.61a77.85,77.85,0,0,0,19.67-13H685.93v-6.66h15.51v-7.4H689.17v-6.4h12.27v-6.9h7.32v6.9h8.52V557a78.72,78.72,0,0,0,6.28-10.64Zm-13,8.19h-8.19v7.4h2.49C712.7,563.31,714.59,560.84,717,557.54Zm43.83,55.68-4.49,5.91a53.9,53.9,0,0,1-14.55-12.81,61.14,61.14,0,0,1-16.8,12.52l-5.2-5.62q11.73-5.69,17.88-13.1-3.21-5.4-5.78-17.13l6.57-3a52.76,52.76,0,0,0,3.74,13.1q5-11.12,5.62-29.65h-9.11a99.17,99.17,0,0,1-9.27,20.87l-4.79-5.7q8.65-14.88,10.82-34.84l6.9,1.37q-.8,5.7-1.87,11.31H760v7h-5.12q-1.11,25.11-8.69,37.13A45.13,45.13,0,0,0,760.78,613.22Z" transform="translate(-322.08 -74.3)"/><path class="cls-1" d="M760,708.1H727.35v5.29a7.16,7.16,0,0,1-1.31,4.53,6.58,6.58,0,0,1-3.33,2.27,31.33,31.33,0,0,1-7.59.6q-2.58,0-5.86-.17l-2.46-6.9c1.94,0,5.69.08,11.23.08,1,0,1.54-.47,1.54-1.41V708.1H685.85v-6h33.72v-3.66a78.12,78.12,0,0,0,11.77-3.33H699.73v-5.45h45.33v5.45a127.32,127.32,0,0,1-17.71,6.49v.5H760Zm-1.29-12.51h-7.15V685.9h-57v9.6h-7.57V679.91h5.28l-1.54-30.56a59,59,0,0,0,16.6-3.25l3.49,5.91a67.44,67.44,0,0,1-12.6,2.62l.25,4.53h11.1v5.53H698.82l.17,4.82h10.64V675H699.32l.25,4.91h46.91l.16-4.91H735.17v-5.49h11.76l.25-4.82h-12v-5.53h12.18l.25-4.53h-13v-6H755l-1.37,31.23h5.11Zm-25.86-47a27.11,27.11,0,0,1-5.53,5.28,50.26,50.26,0,0,1,3.82,3.74l-4.53,4a30.82,30.82,0,0,0-4.24-4.24,64.25,64.25,0,0,1-8.61,4.33l-3.58-4.79a38.67,38.67,0,0,0,7.24-3.41,47.61,47.61,0,0,0-4.7-3.49l4.12-4.16,5.69,4.08a24.56,24.56,0,0,0,4.41-4Zm.41,26.82-4.53,3.91a41.39,41.39,0,0,0-5.78-5.45,73,73,0,0,1-8.69,4.78L710.8,674a61,61,0,0,0,7.32-3.91,32.11,32.11,0,0,0-5.62-3.82l4.12-4.2q2.25,1.34,6.61,4.53A40.59,40.59,0,0,0,728,662l5.2,3.08a51.22,51.22,0,0,1-5.28,5A59.41,59.41,0,0,1,733.29,675.42Z" transform="translate(-322.08 -74.3)"/></g></g><g id="圖層_6" data-name="圖層 6"><g class="cls-2"><path class="cls-1" d="M945.06,694.51q-4.14,11.24-8.4,17.32l-6.21-4.69a68.93,68.93,0,0,0,7.94-15.79Zm25.77-5.44H954.65V718h-7.6V689.07H931.12v-7.18h15.93v-6.8H932v-6.93h8.49a87.09,87.09,0,0,0-3.63-9.88l5.15-2.66h-9.84v-6.93H946a23.81,23.81,0,0,0-2.61-5.28l8.23-1.81a59.49,59.49,0,0,1,3.21,7.09h14.53v6.93H960l5.37,3a85.47,85.47,0,0,1-4.4,9.59h8.49v6.93H954.65v6.8h16.18Zm-12.72-33.45H944.05a89.35,89.35,0,0,1,4.56,12.54h4.6A75.51,75.51,0,0,0,958.11,655.62Zm11.19,47.21-6.25,3.55a58.75,58.75,0,0,0-5.53-13l6.42-3A49.2,49.2,0,0,1,969.3,702.83Zm37-27.32h-7.85v42.28h-7.52V675.51h-8.74q-.26,29.57-9.89,42.36L966,712.72q8.44-11.37,8.45-34.8V648.27q14.47-2,24.41-6.42l5.28,6.42a106.19,106.19,0,0,1-22,6.54v13.27h24.11Z" transform="translate(-322.08 -74.3)"/><path class="cls-1" d="M1092.37,715.63h-75V708h34.88V689.15H1026v-7.6h26.22V665h-19.38a71.19,71.19,0,0,1-10.56,14.19l-5.87-5.62a60.94,60.94,0,0,0,15.79-29.69l7.73,1.81q-1.47,5.53-3.55,11.7h15.84V642.27h7.94v15.16h31V665h-31v16.51h27.5v7.6h-27.5V708h32.18Z" transform="translate(-322.08 -74.3)"/><path class="cls-1" d="M1122.91,674.54l-4.69,6.25a92.18,92.18,0,0,0-15-11.07l4.56-6.25Q1117.72,669.4,1122.91,674.54Zm.93,14.1a147.65,147.65,0,0,1-13.47,29.44l-6.51-4.69A148.82,148.82,0,0,0,1117,685.1Zm1.05-33.7-5.61,5.62a101.09,101.09,0,0,0-14.87-13.35l5.53-5.53Q1120.17,649.29,1124.89,654.94Zm54.32,16.77h-23.87v12H1175v34.09h-7.81v-4.23H1136v4.23h-7.85V683.7h19.34v-12h-23.86l-.09-7.18h24V653.08q-10.21,1-19.34,1.23l-2.7-7.27q27.15,0,47.21-5.53l3.85,6.34a137.28,137.28,0,0,1-21.21,4.39v12.29h23.87Zm-12,34.42v-15H1136v15Z" transform="translate(-322.08 -74.3)"/><path class="cls-1" d="M1219.08,679.23l-5.2,5.61a87.52,87.52,0,0,0-6.21-9.42v42.45h-7.43V681a125.36,125.36,0,0,1-6.84,14.95l-4.06-8q8.07-13.05,10.52-23.69h-9.33v-7.43h9.71V642.48h7.43v14.28h7.86v7.43h-7.86v1.27A107.31,107.31,0,0,1,1219.08,679.23Zm46.79,21.37h-23.95q-5,13.54-25.08,18.33l-3.63-6.76q14.65-2.53,20.39-11.57h-19.17v-6.76h20.91A39.63,39.63,0,0,0,1236,689h-14.82V661.15h38.93V689h-16.34a39.84,39.84,0,0,1-.42,4.86h22.55Zm-26.48-46.12h-5v4.09h-7.65v-4.09h-10.6v-6.72h10.6V642.4h7.65v5.36h5Zm13.18,17.4v-4.06h-24v4.06Zm0,10.56V678h-24v4.44Zm14.27,29.39-4.18,6.42a114.94,114.94,0,0,0-20.65-9l3.72-6.5A127.67,127.67,0,0,1,1266.84,711.83Zm-1.9-57.35h-9.46v4.09h-7.6v-4.09h-5.2v-6.72h5.2V642.4h7.6v5.36h9.46Z" transform="translate(-322.08 -74.3)"/><path class="cls-1" d="M1352.28,699.29q-1.52,18.87-10.64,18.88-8,0-13.79-15t-6.53-39.53H1277v-7.26h44.14q-.47-8.79-.34-14.11h7.68q-.07,5,.34,14.11h23.36v7.26h-23q.51,24.42,5.26,35.5t6.9,11.09q2.63,0,3.26-14.91Zm-31.93,5.19a349.7,349.7,0,0,1-40.37,8l-1.73-7.06q7.51-.93,16.93-2.7v-23h-13.89v-7.35h36.57v7.35h-14.78v21.2q10.56-2.28,17-4Zm29.44-54-5.62,4.85a46.85,46.85,0,0,0-10.81-7.51l5.87-5.2A40.58,40.58,0,0,1,1349.79,650.51Z" transform="translate(-322.08 -74.3)"/></g></g><g id="圖層_7" data-name="圖層 7"><g class="cls-2"><path class="cls-1" d="M1422.46,302.79h-8.93v-6.85h-18.78v7.86h-9.19V228.18h9.29a67.59,67.59,0,0,0,6.09-15.83l9.59,1.57q-.75,4.94-4.87,14.26h16.8Zm-8.93-46.34V237.22h-18.78v19.23Zm0,30.55V265.18h-18.78V287Zm59.17-58.31q-.1,14.92-1.06,38.7t-2.85,28a12.51,12.51,0,0,1-5.7,6.27q-3.84,2-18.66,2.1l-3.45-9.13,13.91-.1a7.13,7.13,0,0,0,4.21-1.68q2.24-1.67,3.35-22.58t1.07-32.59h-20.86a101,101,0,0,1-11,21.12l-7.11-6.35a123,123,0,0,0,15.73-40.34l9.14,2q-1,5.28-3.66,14.56Zm-15.07,46.44-8.12,5.23A110.66,110.66,0,0,0,1435.15,258l8.12-5.07Q1453.62,265.84,1457.63,275.13Z" transform="translate(-322.08 -74.3)"/><path class="cls-1" d="M1425.1,373.06h-29.74v55.47H1386V340.12h39.08ZM1415.71,353v-4.47h-20.35V353Zm0,12.13v-4.47h-20.35v4.47ZM1458.24,404h-14.57V426.5h-9.23V404h-12.28q-1.48,13.91-13.5,22.78l-7.72-6.24q10.1-6.65,11.67-16.54h-14.46v-8.73h15.28v-8.53h-12v-8.63h53.85v8.63h-11.58v8.53h14.57Zm-23.8-8.73v-8.53h-11.52v8.53Zm36.49,25.27a7,7,0,0,1-2.49,5.63q-2.49,2.15-14,2.14c-1.42,0-2.67,0-3.75-.11l-2.39-9.94a40.71,40.71,0,0,0,8.93.86,8,8,0,0,0,3.61-.51,2.35,2.35,0,0,0,.81-2.13V373.06H1432V340.12h39ZM1461.69,353v-4.47h-20.3V353Zm0,12.13v-4.47h-20.3v4.47Z" transform="translate(-322.08 -74.3)"/><path class="cls-1" d="M1424.74,488.19q-1.21.1-5.28.66-2,23.65-8.32,37.4a119.6,119.6,0,0,1,11.57,11.32l-7.81,7.72a83.46,83.46,0,0,0-8.53-10,70.22,70.22,0,0,1-17,18l-6.75-8q11.42-8.73,16.44-17A148.25,148.25,0,0,0,1384.35,517a257.1,257.1,0,0,0,6-25.68q-1.82.26-7.4.51v-9.14c4.43-.2,7.44-.41,9-.61q1.68-8.84,2.74-19.79l9.74.86q-1.21,9.34-2.69,18.27c2-.07,4.84-.23,8.53-.51a77.62,77.62,0,0,0,.3-8.22h9.55q0,2.19-.21,7.11l4.77-.46Zm-15.17,1.68-9.44.86q-1.73,9.58-4.67,23,5.13,3.71,7.82,5.94A103.81,103.81,0,0,0,1409.57,489.87Zm65,14.05-9.74,4.17a52.58,52.58,0,0,0-2.9-8q-17.25,2.64-38.26,3.85l-2.19-8.83a13.76,13.76,0,0,0,4.83-2.59q2.54-2,6.87-11.36a129.8,129.8,0,0,0,7.13-19.24l10.36,1.27q-3.2,11.26-13.91,30.35a147.24,147.24,0,0,0,21.21-2.18,103.89,103.89,0,0,0-7.71-13.4l9-3.65A148.92,148.92,0,0,1,1474.53,503.92Zm-5.28,49.23h-9.64v-4.57h-25.38v4.57h-9.59V510.06h44.61Zm-9.64-13.6V519h-25.38v20.55Z" transform="translate(-322.08 -74.3)"/></g></g><g id="圖層_8" data-name="圖層 8"><g class="cls-2"><path class="cls-1" d="M1570.64,421.78l-4.33,5.83q-23.93-15.24-31.09-40.58-7.53,24.35-31.45,40l-4.3-6.26q24.72-16.12,30.11-39.49h-28.41l-.08-7.25h29.44q.85-8.47,1-17.26h7.25q-.12,10.53-.71,17.26h31.57v7.25h-29.24Q1546.29,407.28,1570.64,421.78Z" transform="translate(-322.08 -74.3)"/><path class="cls-1" d="M1570.33,522.69H1500.1V517.6h31.65V514h-26.88v-4.53h26.88V506h-25.34V486.27h57.45V506h-25.33v3.47h27.54v4.61h-27.54v3.54h31.8ZM1569.7,483h-69v-5.55h69Zm-5.91-8.78h-57.46V454.32h57.46Zm-6.94-12.26v-3h-43.74v3Zm0,7.65v-3.31h-43.74v3.31ZM1531.75,494v-3.31h-18.56V494Zm0,7.49v-3.32h-18.48l-.08,3.32Zm25.18-7.49v-3.31h-18.4V494Zm0,7.49v-3.32h-18.4v3.32Z" transform="translate(-322.08 -74.3)"/><path class="cls-1" d="M1510.19,601.6a74.66,74.66,0,0,1-5,19.11l-5.72-2.48a84.55,84.55,0,0,0,4.85-18Zm19-36.41q-8.87,16.11-18.41,26a81.54,81.54,0,0,0,8.63-2.09,18.86,18.86,0,0,0-1.53-3.67l5.24-1.93a53.53,53.53,0,0,1,4.69,12.77l-5.4,1.93a21,21,0,0,0-.91-3.54,182.57,182.57,0,0,1-19.94,4.25l-1.46-5.55a80,80,0,0,0,13.92-16q-5.13.95-11.94,1.77l-1.31-5.08q8.2-9.61,14.43-24.63l6.38,2.44a109.39,109.39,0,0,1-11.39,20q4.5-.39,7.92-1a69.33,69.33,0,0,0,4.61-8.07ZM1521,617.4l-6.38,1.3a76.66,76.66,0,0,0-2-17l5.87-1.3A116.84,116.84,0,0,1,1521,617.4Zm8.87-9.81-5.24,1.93a39.55,39.55,0,0,0-3.47-9.3l5.24-1.53A77.37,77.37,0,0,1,1529.9,607.59Zm13.79-19.07q.66,15.79-14.58,30.42l-4.77-4.49q10.48-8.91,12.65-19.55h-8.16v-6.38Zm27.62,24.15-4.84,6.11q-7.41-5.84-13.8-16.71v12a5.56,5.56,0,0,1-2.83,5.24q-2.85,1.62-11.39,1.62l-1.93-7.33c3.6.11,6,.11,7.21,0s1.81-.53,1.81-1.32V583.51h-15.09V556.8h10a33.37,33.37,0,0,0,3.66-7.26l7,1.54a31.17,31.17,0,0,1-2.68,5.72h17.85v26.71h-13.64v6.23q.87,1.74,2.56,4.45a64.67,64.67,0,0,0,8.48-7.84l4.92,4.45a92.5,92.5,0,0,1-9.85,9A69.53,69.53,0,0,0,1571.31,612.67Zm-11.94-45.43v-4.61H1537.5v4.61Zm0,10.56V573H1537.5v4.77Z" transform="translate(-322.08 -74.3)"/><path class="cls-1" d="M1570.09,715.55h-70.38V708.3h29V647h7.53v24.24h30.42v7.09H1536.2V708.3h33.89Z" transform="translate(-322.08 -74.3)"/><path class="cls-1" d="M1522.57,744.85q-1.74,4.93-3.35,8.79l-3.43,8v52.53h-7.29V774a62.08,62.08,0,0,1-5.4,6.7l-3.39-7.48a89.51,89.51,0,0,0,15.57-30Zm47.68,15.92h-25.1v11.86h23.25v6.7h-23.25V791h23.33v6.58h-23.33v16.63h-7.25V760.77h-2.76a86.72,86.72,0,0,1-11.63,17.81l-5.24-5a85.56,85.56,0,0,0,15.84-30.26l7.18,1.53q-.6,2.45-3.16,9.22h32.12Z" transform="translate(-322.08 -74.3)"/><path class="cls-1" d="M1570.33,891.9h-31.65v19.35h-7.17V891.9H1500v-6.07h31.56v-4.09h-27.74v-6.07h27.74v-3.94h-29.79v-6.07h18.4a24.47,24.47,0,0,0-2.79-3.47l5.39-3h-22.93v-6h24.71v-12h7v12h7.25v-12h7.06v12h24.35v6h-22.26l4.76,2.53a30.4,30.4,0,0,1-2.68,3.94h18.56v6.07h-29.87v3.94h27.94v6.07h-27.94v4.09h31.65Zm-44.69,6.78a111,111,0,0,1-20.92,12.18l-4.69-5.64A89.64,89.64,0,0,0,1520,894Zm-7-50-5.4,3.9a52.38,52.38,0,0,0-7.18-7.13l5.4-4.18A47.25,47.25,0,0,1,1518.67,848.71Zm26.79,10.48h-21.2a53.45,53.45,0,0,1,4.49,6.47H1541A41,41,0,0,0,1545.46,859.19Zm26.33,45.64-4,5.79a147.76,147.76,0,0,0-23.09-11l4.18-5.84A164,164,0,0,1,1571.79,904.83ZM1564,844.54a45.13,45.13,0,0,1-6.93,7.48l-6.39-3.78a49.31,49.31,0,0,0,7.06-7.09Z" transform="translate(-322.08 -74.3)"/></g></g><g id="圖層_9" data-name="圖層 9"><g class="cls-2"><path class="cls-1" d="M629.78,757.58q0,4.54-12.76,39.52,14.1,21.15,14.09,39.07,0,25.62-24.08,25.61a28.93,28.93,0,0,1-3.39-.18l-3.48-16.33q4.64.45,7.49.45,8.65,0,8.65-10.08,0-17.75-15.52-36.58a410.91,410.91,0,0,0,12.76-40.14H597v139.7H581V743.22h48.8Zm102,124.27q0,16.77-15.71,16.77-8.29,0-11.68-.35l-5-15.7q6.87.34,12.31.35,5.08,0,5.09-5.08V827.79H697.4l11.15,5.62q-3.48,9.11-6.78,16.33h8.92v13.82H692.13v32h-15v-32H658.5V849.74H666q-1.69-5.81-6.07-16.69l11.15-5.26H652.61v70.83H637.27v-85.1h94.48Zm4.37-124.45H638V743.22h98.14Zm-12,47.37H643.69V766.05h80.38Zm-16.23-13.2v-12.4H659.39v12.4Zm-13.21,36.22H673.85q3.92,11,6.78,22h5.62A204.94,204.94,0,0,0,694.63,827.79Z" transform="translate(-322.08 -74.3)"/><path class="cls-1" d="M845.22,765.52H759.49V750.89h34.7a64.61,64.61,0,0,0-4.9-9.55l15.7-4.19a100.49,100.49,0,0,1,6.42,13.74h33.81ZM918.11,889.7H867.17v8.75H851.82V802.36q-3.83,5.89-7,10.08l-5.71-16.23v23.73H810.7q-1,8.84-1.52,11.51h32.38l-.08,52.63q0,7-4.69,10.8t-20.56,3.74l-4.73-14.18,11.6-.18q3.57,0,3.57-4.64l-.09-35.24H807.22l-5,20.52a33.21,33.21,0,0,0,8.12-2.23,73.65,73.65,0,0,0-2.76-8.56l9.63-3.84a171.44,171.44,0,0,1,7.14,25.78l-10.53,4.2a19.17,19.17,0,0,0-1-5.89q-12,3.48-25.69,6.78l-4.64-11.87a15.75,15.75,0,0,0,5-1.16q3.75-13.38,5.8-23.73H780.72v53.89h-15V844.38h-6.24V831.45h6.24v-4.73h15v4.73h14.81q1-5.26,1.61-11.51H767.88V772.75h13.73v34h43.9v-34h13.65v19.8q11.15-19.53,19.89-55.22l14.27,1.87q-2.4,12-7.31,28.82h18.64a188.83,188.83,0,0,0-8.56-24.27L890.72,741Q898,755.89,900,768h15.88v15.16H897.5v20.25h16.77v14.28H897.5v20.87h16.77v14.81H897.5v21.15h20.61ZM823.28,774.26a86.22,86.22,0,0,1-9.91,11.87,130,130,0,0,1,9.73,9.1l-7.67,9A133.73,133.73,0,0,0,805,794.51a105.26,105.26,0,0,1-13.65,10.26l-7.67-9a89,89,0,0,0,11.68-8.56,63.69,63.69,0,0,0-12.31-8L791.7,771a115.72,115.72,0,0,1,12.22,8,82.59,82.59,0,0,0,9.45-10.62Zm59.23,29.17V783.18H867.17v20.25Zm0,35.15V817.71H867.17v20.87Zm0,36V853.39H867.17v21.15Z" transform="translate(-322.08 -74.3)"/></g></g><g id="圖層_11" data-name="圖層 11"><g class="cls-2"><path class="cls-1" d="M428.69,662.64q-.54,19.88-7.18,32.71t-22.24,22.27l-4.77-5.06q14.38-8.16,20.58-18.84a103.43,103.43,0,0,0-11.67-11.21,54.64,54.64,0,0,1-4.7,6.65L394,684.32q9.76-12.45,13.33-31.29l6.3,1.52a60.3,60.3,0,0,1-1.67,8.09Zm-6.76,6.47H410a75.46,75.46,0,0,1-3.39,7.89A148.92,148.92,0,0,1,418,687.36Q420.67,680.61,421.93,669.11Zm36.67,22.31-4.42,5.48a108.58,108.58,0,0,0-13.61-15.34V717H434V653.66h6.54v19.55A130.77,130.77,0,0,1,458.6,691.42Z" transform="translate(-322.08 -74.3)"/><path class="cls-1" d="M530.79,709.67l-1.63,5.93q-10.92.54-20.08.53a128.72,128.72,0,0,1-14.92-.58,33.59,33.59,0,0,1-8.31-2.23,23.41,23.41,0,0,1-7-4.4,86.09,86.09,0,0,1-7,8.77l-5.06-4.07a45.74,45.74,0,0,0,12.45-20.54H468.07v-5.37a96.68,96.68,0,0,0,9.83-13H467.26v-6.09h18.35v6a143.78,143.78,0,0,1-8.77,12.47H486v5.94A63.21,63.21,0,0,1,481.68,704a18.36,18.36,0,0,0,6.54,3.8q4.39,1.65,12.29,1.87t15.75.23Q523.92,709.91,530.79,709.67Zm-44.9-47.38-4.28,4.7a68.38,68.38,0,0,0-13.11-9.19l4.42-4.77A67.33,67.33,0,0,1,485.89,662.29Zm43.59,23.19h-18.7a25.82,25.82,0,0,1-6.66,12.84,39.93,39.93,0,0,1-13,9.51l-4-5.06a33,33,0,0,0,11.35-7.33,19.62,19.62,0,0,0,5.72-10h-16v-5.8h17q.21-2.29.21-4.8c0-1.06,0-2.22-.07-3.47H490.45v-5.73H527v5.73H511.88c0,2.48-.12,5.23-.36,8.27h18Zm-23.33-24-5.48,3a65.9,65.9,0,0,0-6.33-8.62l5.51-2.9A35.36,35.36,0,0,1,506.15,661.51Zm24.64,41.12-3.85,5a122.55,122.55,0,0,0-17.4-13.4l3.79-4.92A102.28,102.28,0,0,1,530.79,702.63Zm-6.54-46.42a65.22,65.22,0,0,1-6.65,8.56L512,661.58a80.89,80.89,0,0,0,6.75-8.62Z" transform="translate(-322.08 -74.3)"/><path class="cls-1" d="M562.57,707.4h-5v-2.3h-17V662h5.12v37.16h3.22V653.59h5.48v45.58h3.18V662h5Zm37.48-35.32H572.83v16.37q0,17.89-6.08,29.17l-5.27-4.28q5.5-10.08,5.51-25.56V654.83h33.06Zm-6.22-5.58v-6.08h-21v6.08Zm7.46,50.38h-5.55v-2.37h-21v-17h5.48v11.63H585V693.3h-9.41V676.64h5.52v11.28H585v-14.1h5.73v14.1h3.92V676.64h5.27V693.3h-9.19v15.83h5V697.5h5.55Z" transform="translate(-322.08 -74.3)"/><path class="cls-1" d="M675.49,709.88l-1.66,6.22q-4.49.14-9.19.14a269.21,269.21,0,0,1-27.06-1.09Q627.17,714,620.2,704.29A60.29,60.29,0,0,1,617,717.2l-5.45-3.5Q615.22,702,615.71,685l5.94.15a76,76,0,0,1-.46,10.07,23.12,23.12,0,0,0,5.45,7.39V680.92H612v-5.8h14.64v-7.74H613.77v-5.87h12.87v-7.67h6.08v7.67h9.93v5.87h-9.93v7.74H644v5.8H632.79V689h9.86v6h-9.86v12.44q4.56,2.63,29.8,2.62Q669,710.09,675.49,709.88Zm-.7-19.84c-.12,4.86-.64,8.28-1.58,10.27s-2.08,3.21-3.46,3.65-4.26.65-8.64.65q-4,0-7.62-.14c-2.4-.1-4.09-.59-5.09-1.49a5,5,0,0,1-1.51-4V656.63H672v24.86H653V697a1.39,1.39,0,0,0,.87,1.38q.86.39,6.06.39,5.73,0,6.82-.6c.73-.4,1.2-1.47,1.42-3.22a63.08,63.08,0,0,0,.31-7.14Zm-9-14.56v-13H653v13Z" transform="translate(-322.08 -74.3)"/></g></g><g id="圖層_12" data-name="圖層 12"><g class="cls-2"><path class="cls-1" d="M423,209.78q-14.79,7.47-37.22,7.47-28.89,0-46.29-18.18t-17.41-48q0-31.12,19.3-51.28T391.1,79.63q19.17,0,31.9,5.33v20.89a62.72,62.72,0,0,0-31.21-7.91q-21.75,0-34.9,14.32t-13.15,37.43q0,22.09,12.34,35.76t33.05,13.67q19.25,0,33.87-8.86Z" transform="translate(-322.08 -74.3)"/><path class="cls-1" d="M440.19,168.34q0-23.46,13.36-37.05T490,117.71q21.74,0,34.38,13.16T537,166.8q0,22.95-13.33,36.7t-35.58,13.75q-21.84,0-34.86-13.32T440.19,168.34Zm20.54-.43q0,15.65,7.61,24.42T489,201.09q27.42,0,27.42-33.78,0-16.34-7-24.88T489,133.88q-13.32,0-20.8,9.11T460.73,167.91Z" transform="translate(-322.08 -74.3)"/><path class="cls-1" d="M639.78,120l-37,95.07h-21.4L546.09,120H568l21.4,65.41a70.51,70.51,0,0,1,3.35,14.53h.43a69.24,69.24,0,0,1,3.1-14.1L618.55,120Z" transform="translate(-322.08 -74.3)"/><path class="cls-1" d="M652.5,87.29A11.09,11.09,0,0,1,656,78.9a12.29,12.29,0,0,1,8.81-3.31,12.66,12.66,0,0,1,8.85,3.31,11.54,11.54,0,0,1,0,16.77A12.65,12.65,0,0,1,664.8,99,12.2,12.2,0,0,1,656,95.62,11,11,0,0,1,652.5,87.29Zm2,127.73V120h20.2V215Z" transform="translate(-322.08 -74.3)"/><path class="cls-1" d="M788.49,215H768.38V200H768q-10.32,17.27-31.46,17.27-18.06,0-28.76-12.85T697,169.72q0-23.64,12-37.82t31.38-14.19q19.34,0,27.51,14.62h.43v-58h20.11Zm-19.94-55.7a25.2,25.2,0,0,0-7-18.14,23,23,0,0,0-17.32-7.3q-12.21,0-19.42,9.36t-7.23,25.62q0,15,6.8,23.6t18.48,8.63a23.08,23.08,0,0,0,18.52-8.55q7.17-8.55,7.18-21.62Z" transform="translate(-322.08 -74.3)"/><path class="cls-1" d="M866.8,170.32H816.08v-15H866.8Z" transform="translate(-322.08 -74.3)"/><path class="cls-1" d="M948.89,78.35V215h-20.8V101a88.45,88.45,0,0,1-14.87,10.32,68.92,68.92,0,0,1-15.91,6.62V98.29a124.78,124.78,0,0,0,38.86-19.94Z" transform="translate(-322.08 -74.3)"/><path class="cls-1" d="M999.6,194.56a46.73,46.73,0,0,0,24.16,6.53q17.45,0,26.82-13.23t9.37-37.14a1.06,1.06,0,0,1-.43-.08q-8.68,15.65-28.71,15.64-16.93,0-27.72-11.78T992.3,125q0-19.93,12.25-32.66t31.93-12.73q20.71,0,32.11,16T1080,141q0,35.76-14.36,56t-41.09,20.24q-14.35,0-24.93-4.64Zm12.81-71.77q0,12.37,6.32,19.72t17.49,7.35a21.63,21.63,0,0,0,16.21-6.7,22.74,22.74,0,0,0,6.49-16.42q0-12.81-6.41-21.83a20.08,20.08,0,0,0-17.23-9,20.31,20.31,0,0,0-16.46,7.82Q1012.42,111.53,1012.41,122.79Z" transform="translate(-322.08 -74.3)"/></g></g><g id="圖層_14" data-name="圖層 14"><g class="cls-2"><path class="cls-1" d="M820.18,544.68H808.34v-6.4H796.63V548H784.52V441h35.66Zm-11.84-59.41v-33l-11.71-.14v33Zm0,41.71V496.57H796.63V527Zm93.77-18H888.7v32.73q0,5.1-2,8a9.67,9.67,0,0,1-5.17,3.84q-3.13,1-12.25.95-4.69,0-8.64-.27l-3.67-11.43q9.59-.27,16.74-.27,3.06,0,3.06-3.34V509h-51V497.86h51V489h12v8.91h13.41Zm-1.36-51.17h-31v15h27.28v11H830.73v-11h26.81v-15H827.12V446.69h30.55V433h12v13.68h31.1Zm-40.9,75.4-10.14,6.66A144.88,144.88,0,0,0,832,519.84l9.59-7.08Q853.73,523.65,859.85,533.25Z" transform="translate(-322.08 -74.3)"/><path class="cls-1" d="M818.21,602.08q-2.73,8.24-4.63,13.48l-4.43,11.36v94.73H796.77V650.47a141.56,141.56,0,0,1-9.66,13.33l-6.4-13.33q16.47-21.16,25.11-51.58Zm84,41.51-47.37,4.77q2.39,29.73,12.08,45.56t14.87,15.82q6.06,0,7.76-23.89l12.11,6q-3.19,31.71-19.05,31.71-11.71,0-24.26-18.34t-16.5-55.76l-27,2.65-.54-12,26.6-2.51q-1.08-15.58-.81-37.5H852.5q0,23.28,1.09,36.27l48.25-4.63Zm-8.92-21.16-10.21,8.1a90.1,90.1,0,0,0-19-20.35l9.6-8A103.15,103.15,0,0,1,893.33,622.43Z" transform="translate(-322.08 -74.3)"/></g></g><g id="圖層_16" data-name="圖層 16"><g class="cls-2"><path class="cls-1" d="M1120.85,144.85h-10.28v4.46h9v31.22h-9v4.08h9.75V191h-9.75V201.2h-6.27V191h-11v-6.35h11v-4.08h-9.22V149.31h9.22v-4.46h-10.92v-6.12h10.92v-5.52h6.27v5.52h10.28Zm-16.55,17.08v-6.42H1101v6.42Zm0,12.48V167.9H1101v6.51Zm9.45-12.48v-6.42h-3.18v6.42Zm0,12.48V167.9h-3.18v6.51Zm47.36,2.22-5,3.26c-.63-1-1.34-2-2.15-3a302.37,302.37,0,0,1-31.33,2l-1.1-5.52q8.7,0,16.1-.38v-4.19h-13.23V146.93h13.23v-3.55H1123v-5.83h14.63v-4.34h6.58v4.34h14.85v5.83h-14.85v3.55h13.08v21.81h-2.16C1157.72,171.94,1159.69,174.57,1161.11,176.63Zm-.38,10.32h-7.18v9.26a4.71,4.71,0,0,1-1.67,3.39,5,5,0,0,1-3.47,1.6q-4.92,0-6.5-.19l-2.08-6c2.11.11,4.05.16,5.82.16.83,0,1.24-.45,1.24-1.33V187H1122.4v-5.67h24.49V178.9h6.66v2.38h7.18Zm-21.51,6.73-5.67,3.48a51.52,51.52,0,0,0-6.72-6.12l5.66-3.33C1134.18,189,1136.42,191,1139.22,193.68Zm-1.55-38.4v-3.17h-6.88v3.17Zm0,8.35v-3.32h-6.88v3.32Zm13.31-8.35v-3.17h-6.73v3.17Zm0,8.35v-3.32h-6.73v3.32Zm2.15,5.11h-8.88v3.74l5.71-.57a12.15,12.15,0,0,0-1.21-1.06Z" transform="translate(-322.08 -74.3)"/><path class="cls-1" d="M1238.21,199.39h-67.35V193.3H1201V186h-25.4v-6.2H1201v-5.33h7v5.33h25.63V186H1208v7.29h30.2ZM1212,157.06h-9.15v15.57h-6.65V157.06h-8.5q-1.07,10.5-10,18.52l-4.73-4.8q7.18-6.36,8.21-13.72h-9.68V151h10.21V141h-9v-6.28H1211V141h-8.13v10H1212Zm-15.8-6.05V141h-7.9v10Zm25.7,12.32h-6.73V137.18h6.73Zm13.87,5.25a5.86,5.86,0,0,1-2,4.65,8,8,0,0,1-5.48,1.78h-9.9l-2-6.35c1.76.13,3.59.19,5.48.19q5.67,0,6.52-.51a2,2,0,0,0,.85-1.83V133.85h6.57Z" transform="translate(-322.08 -74.3)"/><path class="cls-1" d="M1315.39,179.21h-33.9v12.54a2,2,0,0,0,.58,1.36,1.61,1.61,0,0,0,1.12.65h21.28c2.89,0,4.22-3.13,4-9.38l7,2.5q-.23,6.92-2.34,10.22c-1.42,2.21-3.63,3.31-6.66,3.31h-24.83q-6.94,0-7-7.11V179.21h-26.5v-6.66h26.5v-9.9q-8.28.94-12.7,1.21l-2.65-6.42q23.55-1.09,41.58-6.09l3.32,5.86a196.44,196.44,0,0,1-22.67,4.42v10.92h33.9Zm-2.38-18h-6.77V147.31H1257v13.94h-7V140.73h28.08a35.57,35.57,0,0,0-3.63-6.12l7-2a42,42,0,0,1,4.42,8.13H1313Z" transform="translate(-322.08 -74.3)"/><path class="cls-1" d="M1334.51,183.4a99.74,99.74,0,0,1-3.78,17.88l-5.74-2.8a100.67,100.67,0,0,0,3.7-16.48Zm17.81-37.72a106.28,106.28,0,0,1-17,26.5,60.87,60.87,0,0,0,8.77-2.05,14.38,14.38,0,0,0-1.32-3.77l5.32-2.08a51.63,51.63,0,0,1,3.82,13.22l-5.36,1.93c-.21-1.08-.43-2.19-.68-3.32q-10.21,2.56-18.83,3.93l-1.62-5.63q6.5-5.72,12.85-16.26-5.6,1.14-10.93,1.78l-1.62-6q7.14-8.13,11.49-21.13l6.5,2.42a69.4,69.4,0,0,1-9.52,17.31,53.13,53.13,0,0,0,8.2-1.7,80.39,80.39,0,0,0,4-8.05Zm-8.66,51.63-6,1.47a98.64,98.64,0,0,0-1.55-15.3l5.56-1.33A74.11,74.11,0,0,1,1343.66,197.31Zm7.86-6.65-5.25,1.32a77.73,77.73,0,0,0-2-9.52l5.17-1.33A51.16,51.16,0,0,1,1351.52,190.66Zm14.18-20.75-5.86,2.64a141.4,141.4,0,0,0-9.22-15.19,86.35,86.35,0,0,0,8.27-13.76l6.28,2.38a67.62,67.62,0,0,1-6.88,11.53A119.53,119.53,0,0,1,1365.7,169.91ZM1393,199.46H1351.6v-6.57H1369v-12h-15.08v-6.5h36.85v6.5h-14.78v12h17Zm-1.1-58.28h-39.16v-6.57h39.16ZM1379,170l-6.08,2.73a101,101,0,0,0-9.23-15.5,66.61,66.61,0,0,0,8.2-13.68l6.35,2.45a118.14,118.14,0,0,1-6.72,11.15A139.16,139.16,0,0,1,1379,170Zm13.19-.15-6.12,2.88a109.64,109.64,0,0,0-9-15.09,101.5,101.5,0,0,0,8.28-14l5.9,2.61a70.77,70.77,0,0,1-6.35,11.41A120.11,120.11,0,0,1,1392.19,169.83Z" transform="translate(-322.08 -74.3)"/><path class="cls-1" d="M1419.9,175.24a130.58,130.58,0,0,1-11.68,26.19l-5.67-4.57a109.66,109.66,0,0,0,11.15-24.61Zm-1.4-12.44-4.8,4.95a73.83,73.83,0,0,0-10.93-10.54l4.73-4.88A51.32,51.32,0,0,1,1418.5,162.8Zm1.24-19.5-5,4.72a69.62,69.62,0,0,0-11.3-10.62l5.26-4.49A60.19,60.19,0,0,1,1419.74,143.3Zm45.36,58h-6.65v-10.4h-28.12a24.88,24.88,0,0,1-7.9,10.55l-5.48-4.27q8-5.32,8-15.65V169.76h6.65v3.7h26.8v-3.55h6.65Zm5.33-57.68H1451l3.78,2.72a12,12,0,0,1-1.51,3,33.76,33.76,0,0,0,12.74-3.78l3.17,4.5a42.18,42.18,0,0,1-11.6,3.4v8c.63-.2,1.71-.62,3.25-1.25l.72,5.33a53.66,53.66,0,0,1-9.3,3.44l-1.7-4.88a2.59,2.59,0,0,0,1.4-2.34v-10.2l-3.9,5.25v13.23h-6V157.85a29.6,29.6,0,0,0-3.36-7.44c0,4-.11,7.35-.34,10.18s-.59,4.58-1.08,5.24a6.06,6.06,0,0,1-2.42,1.73,8.15,8.15,0,0,1-4.21.5l-1.21-5.56c1.81,0,2.86-.28,3.14-.85s.41-3.23.41-8h-3.1q-.87,9.9-5.63,15.49l-4.8-3.17q3.93-4.08,4.88-12.32h-3.59v-5.41h16.89a9,9,0,0,0-1.17-2.12l4.35-2.53h-20.07v-5.89h21.62c-.23-.63-.7-1.77-1.4-3.41l6.42-1.17a32,32,0,0,1,1.85,4.58h21.21Zm-12,41.31v-5.48h-26.8v5.48ZM1450,143.6h-8.5q1.62,2.84,3.89,8A44.61,44.61,0,0,0,1450,143.6Zm21.62,22-4.5,3.67a33.49,33.49,0,0,1-6.42-14l5.18-1.4Q1467.56,161.3,1471.6,165.56Z" transform="translate(-322.08 -74.3)"/></g></g><g id="圖層_17" data-name="圖層 17"><g class="cls-2"><path class="cls-1" d="M584.27,241.73q-10.56,19.94-25.21,31.63L553.78,263a78.05,78.05,0,0,0,19.93-25ZM582.57,273a62.39,62.39,0,0,1-3.52,7.79l-2.39,4.59v66.2H566V303.15a87.07,87.07,0,0,1-6.66,7.05L554,299.51q11.13-12.39,19.05-31.69Zm53.31,72q-28.23,3.59-51.86,5.54l-2.33-9.75q11.38-.94,23.07-2.07v-8.93H585.59v-9.37h19.17V314H586.22V274.3h18.54v-6.6H583.14v-9.24h21.62v-6.29q-4.2.38-15.46,1l-3.71-9.55a160.77,160.77,0,0,0,42.88-5.91l5.21,8.61a164.84,164.84,0,0,1-18.35,4.28v7.86h20.43v9.24H615.33v6.6h18.1V314h-18.1v6.41h19.42v9.37H615.33v7.73q8.35-.69,20.55-2.45Zm-31.12-55.32v-6.35h-8.67v6.35Zm0,15.15v-6.54h-8.67v6.54Zm18.8-15.15v-6.35h-8.23v6.35Zm0,15.15v-6.54h-8.23v6.54Zm43.76-18.92h-7.73v54.32c0,3.47-1,6.13-2.83,8s-5.51,2.77-10.88,2.77a34.74,34.74,0,0,1-3.65-.19l-3.77-10.56h8c1.46,0,2.2-.86,2.2-2.58V285.87H637.71V274.93h29.61Zm-2.08-33.58h-26.4V241.61h26.4Z" transform="translate(-322.08 -74.3)"/><path class="cls-1" d="M614.89,442H590.18v6.16h9.55v-3.59H610v10.13H559.81V444.52H570v3.59h9.87V442H555.16v-7h24.71v-4.09H559.81V407.3h20.06v-3.77H555.16v-6.91h24.71v-4.15h10.31v4.15h24.58v6.91H590.18v3.77h20v23.58h-20V435h24.71Zm52.43,49H617.21l.13,3.59q0,6.72-3.77,8.83t-18.11,2.23L591.88,496l11.82-.12c1.71,0,2.57-.94,2.57-2.83l-.12-2.08h-51v-8.11h51v-4.52H561.2v-7.48h44.95v-4.34q-30,.75-38.1.63l-3.46-8.37q53.63.7,85.63-4.14l5.53,7.73q-18.91,2.7-38.54,3.77v4.72h44.2v7.48h-44.2v4.52h50.11Zm-87.45-74.81v-3.33H570v3.33Zm0,8.74v-3.46H570v3.46Zm19.86-8.74v-3.33h-9.55v3.33Zm0,8.74v-3.46h-9.55v3.46Zm67.46-7.55H652.67q-7.6,0-7.61-7.85v-6.23H632.8q-.63,12.89-14.52,16.91l-5.78-7.73q5.71-2.13,7.54-4.56c1.22-1.61,1.82-3.93,1.82-6.94v-6h33.77v12.51c0,1.38.58,2.08,1.76,2.08h9.8Zm1,28.67-3.33,9.43a79.57,79.57,0,0,1-24.33-7.35,84.24,84.24,0,0,1-23.08,7.1L613,446.28a88.68,88.68,0,0,0,17.48-4.08q-8-7.11-10.56-11.76H615.7v-8.23h46.84v8.23a77.64,77.64,0,0,1-11.94,11.88A101.58,101.58,0,0,0,668.2,446Zm-18.67-15.59H631.17a28.3,28.3,0,0,0,9,7.1A34.6,34.6,0,0,0,649.53,430.44Z" transform="translate(-322.08 -74.3)"/></g></g></svg>