<svg width="57" height="50" viewBox="0 0 57 50" fill="none" xmlns="http://www.w3.org/2000/svg">
<path d="M21.6665 10.9345L22.9518 11.3954C23.4288 11.5665 23.7745 11.9843 23.8532 12.485L27.2668 34.2112C27.5409 35.9558 26.1259 37.5042 24.3637 37.3879L21.0754 37.2029C17.056 36.9767 13.0491 37.8295 9.47022 39.673C8.65888 40.0909 7.67485 39.6031 7.51617 38.7044L3.50784 16.0018C3.40985 15.4468 3.63431 14.8841 4.08741 14.549L5.81751 13.2692C8.29718 11.4351 11.2291 10.3101 14.2992 10.0146C16.7927 9.77472 19.3085 10.0888 21.6665 10.9345Z" fill="black" stroke="black"/>
<path d="M26.7209 10.7517L25.6832 11.4531C25.267 11.7345 25.0606 12.2372 25.1471 12.7591L28.7239 34.3534C29.0201 36.1413 30.8712 37.3394 32.5384 36.8221L35.6666 35.8855C39.4561 34.7511 43.5608 34.6553 47.5743 35.6077C48.5045 35.8285 49.3074 35.1003 49.17 34.1605L45.8556 11.4983C45.7703 10.9146 45.3635 10.4024 44.8069 10.1776L42.7544 9.3487C39.7858 8.14983 36.6176 7.73778 33.5743 8.15476C31.0861 8.49568 28.7476 9.38179 26.7209 10.7517Z" fill="black" stroke="black"/>
<path d="M47.1604 39.174L10.4512 43.6264C9.71354 43.7159 9.04028 43.1978 8.93782 42.4619C8.85453 41.8636 9.17509 41.282 9.72534 41.0329L10.9948 40.4583C12.7804 39.65 14.6714 39.0984 16.6116 38.8198C18.4124 38.5613 20.2393 38.5403 22.0455 38.7574L22.8526 38.8544C26.4251 39.2838 30.0473 38.9934 33.5057 38.0004L35.6026 37.3983C38.8726 36.1946 42.4076 35.8989 45.8321 36.5428L47.2376 36.807C47.826 36.9176 48.2424 37.4456 48.2129 38.0436C48.1841 38.6264 47.7397 39.1038 47.1604 39.174Z" fill="black" stroke="black"/>
<path d="M17.6338 15.4667L19.2191 15.5036C19.2752 15.5049 19.3311 15.5112 19.3862 15.5224L20.0015 15.6475C20.2175 15.6914 20.3494 15.9112 20.2864 16.1224C20.2498 16.2451 20.1533 16.3406 20.0303 16.376L19.6967 16.4717C19.6256 16.4922 19.5525 16.5047 19.4786 16.5091L17.2136 16.6452L17.1691 16.65C15.193 16.8636 13.2389 17.2469 11.3284 17.7954L8.84795 18.7774L7.90698 19.0476C7.72194 19.1007 7.52887 18.9938 7.47574 18.8088C7.44613 18.7056 7.46566 18.5946 7.5287 18.5078L7.76068 18.1882C7.86785 18.0406 8.00836 17.9204 8.17078 17.8374L9.63971 17.0866C10.1006 16.8511 10.5831 16.6606 11.0805 16.5177L13.5226 15.8165L14.0457 15.7276C15.2306 15.5261 16.4322 15.4387 17.6338 15.4667Z" fill="#C4C4C4" stroke="black" stroke-width="0.5"/>
<path d="M18.7119 21.6327L20.2972 21.6696C20.3534 21.6709 20.4093 21.6772 20.4643 21.6884L21.0796 21.8135C21.2957 21.8574 21.4275 22.0772 21.3645 22.2885C21.328 22.4111 21.2314 22.5067 21.1084 22.542L20.7748 22.6378C20.7037 22.6582 20.6306 22.6707 20.5567 22.6752L18.2917 22.8112L18.2473 22.816C16.2711 23.0297 14.317 23.4129 12.4065 23.9614L9.92607 24.9434L8.9851 25.2136C8.80007 25.2667 8.60699 25.1598 8.55386 24.9748C8.52425 24.8716 8.54379 24.7606 8.60683 24.6738L8.83881 24.3543C8.94597 24.2067 9.08649 24.0864 9.24891 24.0034L10.7178 23.2526C11.1787 23.0171 11.6612 22.8266 12.1587 22.6838L14.6008 21.9826L15.1238 21.8936C16.3088 21.6921 17.5103 21.6047 18.7119 21.6327Z" fill="#C4C4C4" stroke="black" stroke-width="0.5"/>
<path d="M19.3701 28.7274L20.9554 28.7643C21.0116 28.7656 21.0675 28.7719 21.1225 28.7831L21.7378 28.9082C21.9539 28.9521 22.0857 29.1719 22.0227 29.3832C21.9862 29.5058 21.8896 29.6014 21.7666 29.6367L21.433 29.7325C21.3619 29.7529 21.2888 29.7654 21.2149 29.7699L18.9499 29.9059L18.9055 29.9107C16.9293 30.1244 14.9752 30.5076 13.0647 31.0562L10.5843 32.0382L9.64331 32.3083C9.45827 32.3615 9.2652 32.2545 9.21207 32.0695C9.18245 31.9664 9.20199 31.8553 9.26503 31.7685L9.49701 31.449C9.60417 31.3014 9.74469 31.1812 9.90711 31.0982L11.376 30.3474C11.8369 30.1118 12.3194 29.9213 12.8169 29.7785L15.259 29.0773L15.7821 28.9883C16.967 28.7868 18.1685 28.6994 19.3701 28.7274Z" fill="#C4C4C4" stroke="black" stroke-width="0.5"/>
<path d="M32.4475 14.4948L30.9791 14.9383C30.9269 14.9541 30.8766 14.9745 30.8288 14.9995L30.2955 15.2774C30.1081 15.3751 30.0577 15.6188 30.1865 15.8043C30.2614 15.9123 30.3836 15.9788 30.5106 15.9809L30.8533 15.9865C30.9266 15.9877 30.9991 15.9808 31.0696 15.966L33.2309 15.5126L33.2741 15.5057C35.1911 15.2008 37.1438 15.0636 39.1105 15.0957L41.7534 15.395L42.7213 15.4108C42.9122 15.4139 43.0575 15.2619 43.0458 15.0713C43.0393 14.9652 42.9843 14.8642 42.8966 14.7975L42.5744 14.5522C42.4251 14.4386 42.2537 14.3598 42.074 14.3223L40.4537 13.9835C39.9449 13.8771 39.4307 13.8193 38.9184 13.8109L36.4048 13.77L35.8871 13.8197C34.7129 13.9324 33.5611 14.1585 32.4475 14.4948Z" fill="#C4C4C4" stroke="black" stroke-width="0.5"/>
<path d="M33.4807 20.6628L32.0123 21.1063C31.9601 21.122 31.9098 21.1425 31.862 21.1674L31.3287 21.4454C31.1413 21.543 31.0909 21.7867 31.2197 21.9723C31.2946 22.0802 31.4168 22.1468 31.5438 22.1489L31.8865 22.1545C31.9598 22.1556 32.0323 22.1488 32.1028 22.134L34.2641 21.6805L34.3073 21.6737C36.2243 21.3688 38.177 21.2316 40.1437 21.2636L42.7866 21.563L43.7545 21.5787C43.9454 21.5818 44.0907 21.4299 44.079 21.2393C44.0725 21.1332 44.0175 21.0322 43.9298 20.9654L43.6076 20.7202C43.4583 20.6066 43.2869 20.5278 43.1072 20.4902L41.4869 20.1514C40.9781 20.045 40.4639 19.9873 39.9516 19.9789L37.438 19.938L36.9203 19.9877C35.7461 20.1004 34.5943 20.3265 33.4807 20.6628Z" fill="#C4C4C4" stroke="black" stroke-width="0.5"/>
<path d="M35.219 27.6101L33.7505 28.0536C33.6984 28.0693 33.6481 28.0898 33.6003 28.1147L33.067 28.3926C32.8796 28.4903 32.8292 28.734 32.958 28.9196C33.0329 29.0275 33.1551 29.0941 33.282 29.0961L33.6248 29.1017C33.6981 29.1029 33.7706 29.0961 33.8411 29.0813L36.0023 28.6278L36.0456 28.6209C37.9626 28.3161 39.9153 28.1789 41.882 28.2109L44.5249 28.5102L45.4928 28.526C45.6837 28.5291 45.829 28.3771 45.8173 28.1866C45.8108 28.0805 45.7558 27.9795 45.6681 27.9127L45.3458 27.6675C45.1966 27.5539 45.0251 27.4751 44.8455 27.4375L43.2252 27.0987C42.7164 26.9923 42.2022 26.9345 41.6899 26.9262L39.1763 26.8853L38.6586 26.9349C37.4844 27.0477 36.3326 27.2737 35.219 27.6101Z" fill="#C4C4C4" stroke="black" stroke-width="0.5"/>
</svg>
